<svg width="28" height="45" fill="none" xmlns="http://www.w3.org/2000/svg"><path d="M4.66667 0c-.00234.779333-.00468 1.55867-.00701 2.338l.01168-.01167H2.36367V34.9767h2.31232v-2.331h2.34035v-2.3264h2.32632V28.021H11.683v2.3193h2.3263v4.6737h2.3404v4.6247h4.6596V34.993l-.0116.0117h2.317v7.0046h-2.31v2.324H16.338v-2.3426h-2.3403V37.317h-2.3404v-4.6247H9.317v2.3217H6.99067v2.3403H4.65033v2.3124H0V0h4.66667Z" fill="#000"/><path d="M28 27.9998h-2.324v2.3264h-4.683v4.6783l.0117-.0117H18.648v-4.6736h-2.2936v-4.6667h9.3146v-2.3263l-.0116.0116c.7793-.0023 1.5586-.0046 2.338-.007C28 24.8895 28 26.4435 28 27.9998ZM4.65967 2.33784H6.993v2.33333l.01168-.01166H4.67135V2.32617l-.01168.01167ZM6.99304 4.67133h2.33334v2.33334l.01167-.01167H7.00472V4.65967l-.01168.01166ZM9.32629 7.00483h2.33331v2.33333l.0117-.01166H9.33797V6.99316l-.01168.01167Z" fill="#000"/><path d="M11.6597 9.33784h2.3333v2.33336l.0117-.0117h-2.3334V9.32617l-.0116.01167ZM13.993 11.6713h2.3334v2.3334l.0117-.0117h-2.3334v-2.3333l-.0117.0116ZM16.3263 14.0048h2.3333v2.3334l.0117-.0117H16.338v-2.3333l-.0117.0116Z" fill="#000"/><path d="M18.6597 16.3378h2.3333v2.3334l.0117-.0117h-2.3334v-2.3333l-.0116.0116ZM20.993 18.6713h2.3334v2.3334l.0117-.0117h-2.3334v-2.3333l-.0117.0116ZM23.3263 21.0048h2.3333v2.3334l.0117-.0117H23.338v-2.3333l-.0117.0116Z" fill="#000"/><path d="M23.338 20.9953v2.3333h2.3333v2.3263h-9.3146v4.6667h2.2936v4.6737h2.3567v4.6457h-4.6597v-4.6247H14.007v-4.6737h-2.3263v-2.3193H9.34034v2.2983H7.014v2.3263H4.67367v2.3311H2.36133V2.32861H4.669v2.33334h2.33333v2.33333h2.33333v2.33333H11.669v2.33329h2.3333v2.3334h2.3334v2.3333h2.3333v2.3333h2.3333v2.3334h2.3357Z" fill="#fff"/></svg>