<svg width="28" height="42" fill="none" xmlns="http://www.w3.org/2000/svg"><path d="M4.65967 34.9953v2.338H0V0h4.66667c-.00234.779333-.00467 1.55867-.007 2.338l.01166-.01167H2.359V35.0047h2.31233l-.01166-.0094ZM21.0069 39.6621c-.0023.7793-.0046 1.5587-.007 2.338h-4.6666c.0023-.7793.0046-1.5587.007-2.338l-.0117.0117c1.5587-.0047 3.1173-.0094 4.6783-.0117ZM28 25.6666c-.7793.0023-1.5587.0047-2.338.007.0047-.7817.007-1.5633.0117-2.345l-.0117.0117c.7793-.0024 1.5587-.0047 2.338-.007v2.3333Z" fill="#000"/><path d="M4.65967 2.33784H6.993v2.33333l.01167-.01166H4.67133V2.32617l-.01166.01167ZM6.99304 4.67133h2.33334v2.33334l.01166-.01167H7.00471V4.65967l-.01167.01166ZM9.32629 7.00483h2.33331v2.33333l.0117-.01166H9.33796V6.99316l-.01167.01167Z" fill="#000"/><path d="M11.6597 9.33784h2.3333v2.33336l.0117-.0117h-2.3334V9.32617l-.0116.01167ZM13.993 11.6713h2.3334v2.3334l.0116-.0117h-2.3333v-2.3333l-.0117.0116ZM16.3263 14.0048h2.3333v2.3334l.0117-.0117H16.338v-2.3333l-.0117.0116Z" fill="#000"/><path d="M18.6597 16.3378h2.3333v2.3334l.0117-.0117h-2.3334v-2.3333l-.0116.0116ZM20.993 18.6713h2.3334v2.3334l.0116-.0117h-2.3333v-2.3333l-.0117.0116ZM23.3263 21.0048h2.3333v2.3334l.0117-.0117H23.338v-2.3333l-.0117.0116ZM14.0047 34.9928h-2.3334v-4.6666l-.0116.0116h2.3333v4.6667l.0117-.0117ZM16.3404 39.6618H14.007v-4.6667l-.0116.0117h2.3333v4.6667l.0117-.0117Z" fill="#000"/><path d="M11.6736 30.3285H9.32861l.01167.0117v-2.3124h2.32162v2.3124l.0117-.0117Z" fill="#000"/><path d="M9.32869 30.3262v2.3333H6.99536l.01167.0117v-2.3334h2.33333l-.01167-.0116ZM6.99532 32.6597v2.3333H4.66199l.01166.0117v-2.3334h2.33333l-.01166-.0116Z" fill="#000"/><path d="M7.00468 32.6712H4.67134v2.3333H2.35901V2.32617h2.31233v2.33334h2.33334v2.33333h2.33333v2.33333h2.33329v2.33333h2.3334v2.3333h2.3333v2.3334h2.3333v2.3333h2.3334v2.3333h2.3333v2.3334h2.3333c-.0046.7816-.007 1.5633-.0116 2.345l.0116-.0117H16.359v4.6783h2.3123l-.0116-.0116v4.6783h2.345l-.0117-.0117v4.6784l.0117-.0117c-1.5587.0047-3.1197.007-4.6784.0117v-4.6667H13.993v-4.6667h-2.3333v-2.3123H9.33801v2.3123H7.00468v2.3334Z" fill="#fff"/><path d="M18.6713 30.338H16.359v-4.6783h9.3123v2.324h-7v2.3543Z" fill="#000"/><path d="M21.0047 35.0045h-2.345v-4.6783h2.345v4.6783Z" fill="#000"/><path d="M20.9954 39.6715v-4.6783h2.3123v4.6783h-2.3123Z" fill="#000"/></svg>