<?xml version="1.0" encoding="UTF-8"?>
<!DOCTYPE svg PUBLIC "-//W3C//DTD SVG 1.1//EN" "http://www.w3.org/Graphics/SVG/1.1/DTD/svg11.dtd">
<svg xmlns="http://www.w3.org/2000/svg" version="1.1" width="35px" height="47px" style="shape-rendering:geometricPrecision; text-rendering:geometricPrecision; image-rendering:optimizeQuality; fill-rule:evenodd; clip-rule:evenodd" xmlns:xlink="http://www.w3.org/1999/xlink">
<g><path style="opacity:1" fill="#0a0a0a" d="M 9.5,-0.5 C 11.5,-0.5 13.5,-0.5 15.5,-0.5C 15.8333,0.166667 16.1667,0.833333 16.5,1.5C 14.5,1.5 12.5,1.5 10.5,1.5C 10.5,8.5 10.5,15.5 10.5,22.5C 8.51676,22.8432 7.18342,22.1765 6.5,20.5C 8.20445,13.8301 9.20445,6.83007 9.5,-0.5 Z"/></g>
<g><path style="opacity:1" fill="#f5f6f8" d="M 16.5,1.5 C 16.334,6.84372 16.5006,12.1771 17,17.5C 17.3333,15.5 17.6667,13.5 18,11.5C 18.6708,10.7476 19.5041,10.4142 20.5,10.5C 20.1924,12.924 20.5258,15.2573 21.5,17.5C 22.4287,16.3112 22.762,14.9778 22.5,13.5C 23.5,13.5 24.5,13.5 25.5,13.5C 25.1924,15.924 25.5258,18.2573 26.5,20.5C 27.4519,18.9547 27.7852,17.288 27.5,15.5C 28.5,15.5 29.5,15.5 30.5,15.5C 30.5,16.8333 31.1667,17.5 32.5,17.5C 32.7815,24.6381 31.9482,31.6381 30,38.5C 26.7282,40.6039 23.0615,41.6039 19,41.5C 15.636,41.4052 12.4694,40.7385 9.5,39.5C 8.17252,34.8356 5.83918,30.8356 2.5,27.5C 1.52577,25.2573 1.19244,22.924 1.5,20.5C 3.16667,20.5 4.83333,20.5 6.5,20.5C 7.18342,22.1765 8.51676,22.8432 10.5,22.5C 10.5,15.5 10.5,8.5 10.5,1.5C 12.5,1.5 14.5,1.5 16.5,1.5 Z"/></g>
<g><path style="opacity:0.994" fill="#0b0b0c" d="M 16.5,1.5 C 18.1501,4.20275 19.4835,7.20275 20.5,10.5C 19.5041,10.4142 18.6708,10.7476 18,11.5C 17.6667,13.5 17.3333,15.5 17,17.5C 16.5006,12.1771 16.334,6.84372 16.5,1.5 Z"/></g>
<g><path style="opacity:1" fill="#0d0d0d" d="M 20.5,10.5 C 22.1667,10.5 23.8333,10.5 25.5,10.5C 25.5,11.5 25.5,12.5 25.5,13.5C 24.5,13.5 23.5,13.5 22.5,13.5C 22.762,14.9778 22.4287,16.3112 21.5,17.5C 20.5258,15.2573 20.1924,12.924 20.5,10.5 Z"/></g>
<g><path style="opacity:1" fill="#0b0b0b" d="M 25.5,13.5 C 27.7812,13.0773 29.4479,13.744 30.5,15.5C 29.5,15.5 28.5,15.5 27.5,15.5C 27.7852,17.288 27.4519,18.9547 26.5,20.5C 25.5258,18.2573 25.1924,15.924 25.5,13.5 Z"/></g>
<g><path style="opacity:0.675" fill="#0d0d0d" d="M 30.5,15.5 C 31.8333,15.5 32.5,16.1667 32.5,17.5C 32.5,16.1667 31.8333,15.5 30.5,15.5 Z"/></g>
<g><path style="opacity:0.998" fill="#0f0f0f" d="M -0.5,16.5 C 1.5273,16.3379 3.5273,16.5045 5.5,17C 6.33663,18.0113 6.66997,19.1779 6.5,20.5C 4.83333,20.5 3.16667,20.5 1.5,20.5C 1.19244,22.924 1.52577,25.2573 2.5,27.5C 5.83918,30.8356 8.17252,34.8356 9.5,39.5C 12.4694,40.7385 15.636,41.4052 19,41.5C 23.0615,41.6039 26.7282,40.6039 30,38.5C 31.9482,31.6381 32.7815,24.6381 32.5,17.5C 33.1667,17.5 33.8333,17.5 34.5,17.5C 34.5,23.1667 34.5,28.8333 34.5,34.5C 32.6838,37.4614 31.3505,40.7947 30.5,44.5C 28.8212,44.2852 27.8212,44.9519 27.5,46.5C 21.8333,46.5 16.1667,46.5 10.5,46.5C 9.49751,44.9891 8.83084,43.3224 8.5,41.5C 7.5,41.5 6.5,41.5 5.5,41.5C 4.8698,38.4183 3.8698,35.4183 2.5,32.5C 1.73485,31.3881 0.734849,30.7214 -0.5,30.5C -0.5,25.8333 -0.5,21.1667 -0.5,16.5 Z"/></g>
</svg>
