<?xml version="1.0" encoding="UTF-8"?>
<!DOCTYPE svg PUBLIC "-//W3C//DTD SVG 1.1//EN" "http://www.w3.org/Graphics/SVG/1.1/DTD/svg11.dtd">
<svg xmlns="http://www.w3.org/2000/svg" version="1.1" width="35px" height="45px" style="shape-rendering:geometricPrecision; text-rendering:geometricPrecision; image-rendering:optimizeQuality; fill-rule:evenodd; clip-rule:evenodd" xmlns:xlink="http://www.w3.org/1999/xlink">
<g><path style="opacity:1" fill="#0a0a0a" d="M 9.5,-0.5 C 11.5,-0.5 13.5,-0.5 15.5,-0.5C 15.8333,0.166667 16.1667,0.833333 16.5,1.5C 14.5,1.5 12.5,1.5 10.5,1.5C 10.5,8.5 10.5,15.5 10.5,22.5C 7.56415,21.5942 4.56415,20.9275 1.5,20.5C 1.5,22.8333 1.5,25.1667 1.5,27.5C 0.833333,27.5 0.166667,27.5 -0.5,27.5C -0.5,24.1667 -0.5,20.8333 -0.5,17.5C 2.97214,16.9629 5.80547,17.9629 8,20.5C 8.20272,13.4207 8.70272,6.42068 9.5,-0.5 Z"/></g>
<g><path style="opacity:1" fill="#f6f7f8" d="M 16.5,1.5 C 16.334,6.84372 16.5006,12.1771 17,17.5C 17.3333,15.5 17.6667,13.5 18,11.5C 18.6708,10.7476 19.5041,10.4142 20.5,10.5C 20.1924,12.924 20.5258,15.2573 21.5,17.5C 22.4287,16.3112 22.762,14.9778 22.5,13.5C 23.5,13.5 24.5,13.5 25.5,13.5C 25.1924,15.924 25.5258,18.2573 26.5,20.5C 27.4519,18.9547 27.7852,17.288 27.5,15.5C 28.5,15.5 29.5,15.5 30.5,15.5C 30.5,16.8333 31.1667,17.5 32.5,17.5C 32.5,22.5 32.5,27.5 32.5,32.5C 31.5,32.5 30.5,32.5 29.5,32.5C 29.7105,35.752 29.0438,38.752 27.5,41.5C 21.8333,41.5 16.1667,41.5 10.5,41.5C 10.5,40.1667 9.83333,39.5 8.5,39.5C 8.92271,37.2188 8.25605,35.5521 6.5,34.5C 6.5,33.1667 6.5,31.8333 6.5,30.5C 5.5,30.5 4.5,30.5 3.5,30.5C 3.71481,28.8212 3.04814,27.8212 1.5,27.5C 1.5,25.1667 1.5,22.8333 1.5,20.5C 4.56415,20.9275 7.56415,21.5942 10.5,22.5C 10.5,15.5 10.5,8.5 10.5,1.5C 12.5,1.5 14.5,1.5 16.5,1.5 Z"/></g>
<g><path style="opacity:0.994" fill="#0b0b0c" d="M 16.5,1.5 C 18.1501,4.20275 19.4835,7.20275 20.5,10.5C 19.5041,10.4142 18.6708,10.7476 18,11.5C 17.6667,13.5 17.3333,15.5 17,17.5C 16.5006,12.1771 16.334,6.84372 16.5,1.5 Z"/></g>
<g><path style="opacity:1" fill="#0d0d0d" d="M 20.5,10.5 C 22.1667,10.5 23.8333,10.5 25.5,10.5C 25.5,11.5 25.5,12.5 25.5,13.5C 24.5,13.5 23.5,13.5 22.5,13.5C 22.762,14.9778 22.4287,16.3112 21.5,17.5C 20.5258,15.2573 20.1924,12.924 20.5,10.5 Z"/></g>
<g><path style="opacity:1" fill="#0b0b0b" d="M 25.5,13.5 C 27.7812,13.0773 29.4479,13.744 30.5,15.5C 29.5,15.5 28.5,15.5 27.5,15.5C 27.7852,17.288 27.4519,18.9547 26.5,20.5C 25.5258,18.2573 25.1924,15.924 25.5,13.5 Z"/></g>
<g><path style="opacity:0.675" fill="#0d0d0d" d="M 30.5,15.5 C 31.8333,15.5 32.5,16.1667 32.5,17.5C 32.5,16.1667 31.8333,15.5 30.5,15.5 Z"/></g>
<g><path style="opacity:1" fill="#0a0a0a" d="M 32.5,17.5 C 33.1667,17.5 33.8333,17.5 34.5,17.5C 34.5,22.5 34.5,27.5 34.5,32.5C 33.8333,32.5 33.1667,32.5 32.5,32.5C 32.5,27.5 32.5,22.5 32.5,17.5 Z"/></g>
<g><path style="opacity:1" fill="#101010" d="M 1.5,27.5 C 3.04814,27.8212 3.71481,28.8212 3.5,30.5C 1.95186,30.1788 1.28519,29.1788 1.5,27.5 Z"/></g>
<g><path style="opacity:1" fill="#0e0e0e" d="M 3.5,30.5 C 4.5,30.5 5.5,30.5 6.5,30.5C 6.5,31.8333 6.5,33.1667 6.5,34.5C 5.5,34.5 4.5,34.5 3.5,34.5C 3.5,33.1667 3.5,31.8333 3.5,30.5 Z"/></g>
<g><path style="opacity:0.682" fill="#1b1b1c" d="M 32.5,32.5 C 32.8076,34.924 32.4742,37.2573 31.5,39.5C 30.7174,41.2882 29.3841,42.2882 27.5,42.5C 27.5,42.1667 27.5,41.8333 27.5,41.5C 29.0438,38.752 29.7105,35.752 29.5,32.5C 30.5,32.5 31.5,32.5 32.5,32.5 Z"/></g>
<g><path style="opacity:0.998" fill="#090909" d="M 6.5,34.5 C 8.25605,35.5521 8.92271,37.2188 8.5,39.5C 6.74395,38.4479 6.07729,36.7812 6.5,34.5 Z"/></g>
<g><path style="opacity:1" fill="#0a0a0a" d="M 8.5,39.5 C 9.83333,39.5 10.5,40.1667 10.5,41.5C 9.16667,41.5 8.5,40.8333 8.5,39.5 Z"/></g>
<g><path style="opacity:1" fill="#0f0f0f" d="M 10.5,41.5 C 16.1667,41.5 21.8333,41.5 27.5,41.5C 27.5,41.8333 27.5,42.1667 27.5,42.5C 27.5,43.1667 27.5,43.8333 27.5,44.5C 21.8333,44.5 16.1667,44.5 10.5,44.5C 10.5,43.5 10.5,42.5 10.5,41.5 Z"/></g>
</svg>
